# xmcd CD database file
#
# Track frame offsets:
#	150
#	38031
#	59174
#	92367
#	124346
#	151565
#	181483
#	207600
#	230930
#
# Disc length: 3583 seconds
#
# Revision: 0
# Processed by: cddbd v1.5.2PL0 Copyright (c) Steve Scherf et al.
# Submitted via: CDex 1.51
#
DISCID=7d0dfd09
DTITLE=Joachim Raffel Quartet - Pieces and Pictures
DYEAR=2010
DGENRE=Jazz
TTITLE0=Kura Kura
TTITLE1=Something for Someone
TTITLE2=Intermezzo
TTITLE3=Radio Dreams
TTITLE4=Eye Song
TTITLE5=Spring-O-Nine
TTITLE6=Thought
TTITLE7=August Line
TTITLE8=Pictures of an Honest Knight
EXTD=YEAR: 2010
EXTT0=
EXTT1=
EXTT2=
EXTT3=
EXTT4=
EXTT5=
EXTT6=
EXTT7=
EXTT8=
PLAYORDER=
